<svg xmlns="http://www.w3.org/2000/svg" viewBox="0 0 1600 1000" width="1600" height="1000" font-family="DejaVu Sans,sans-serif"><rect width="1600" height="1000" rx="14" fill="#14110E"/><rect x="0" y="0" width="1600" height="50" fill="#100D0B"/><line x1="0" y1="50" x2="1600" y2="50" stroke="#3A3128"/><rect x="14" y="13" width="26" height="24" rx="5" fill="#241F1B" stroke="#3A3128"/><text x="27" y="30" font-family='DejaVu Sans,sans-serif' font-size="15" fill="#8A7F70" text-anchor="middle">‹</text><text x="52" y="31" font-family='DejaVu Sans Mono,monospace' font-size="13" fill="#BCB1A2">2025 / ITA / RACE / <tspan fill="#F4EEE6">replay</tspan></text><rect x="1060" y="12" width="300" height="26" rx="5" fill="#100D0B" stroke="#3A3128"/><text x="1075" y="29" font-family='DejaVu Sans Mono,monospace' font-size="12" fill="#5C544A">⌕ Search / query</text><text x="1342" y="29" font-family='DejaVu Sans Mono,monospace' font-size="11" fill="#8A7F70">⌘K</text><rect x="1376" y="11" width="88" height="28" rx="5" fill="#241F1B" stroke="#3A3128"/><text x="1420" y="29" font-family='DejaVu Sans,sans-serif' font-size="12" fill="#BCB1A2" text-anchor="middle">Export E</text><rect x="1472" y="11" width="108" height="28" rx="5" fill="#241F1B" stroke="#3A3128"/><text x="1526" y="29" font-family='DejaVu Sans,sans-serif' font-size="12" fill="#BCB1A2" text-anchor="middle">Save view S</text><rect x="1556" y="11" width="34" height="28" rx="5" fill="#241F1B" stroke="#3A3128"/><text x="1573" y="29" font-family='DejaVu Sans,sans-serif' font-size="12" fill="#BCB1A2" text-anchor="middle">?</text><rect x="0" y="50" width="1600" height="46" fill="#241F1B"/><line x1="0" y1="96" x2="1600" y2="96" stroke="#3A3128"/><text x="16" y="68" font-family='DejaVu Sans Mono,monospace' font-size="10" fill="#8A7F70">DRIVERS</text><text x="16" y="86" font-family='DejaVu Sans Mono,monospace' font-size="13" fill="#F4EEE6">20</text><line x1="78.4" y1="60" x2="78.4" y2="86" stroke="#3A3128"/><text x="100.4" y="68" font-family='DejaVu Sans Mono,monospace' font-size="10" fill="#8A7F70">PIT STOPS</text><text x="100.4" y="86" font-family='DejaVu Sans Mono,monospace' font-size="13" fill="#F4EEE6">20</text><line x1="177.2" y1="60" x2="177.2" y2="86" stroke="#3A3128"/><text x="199.2" y="68" font-family='DejaVu Sans Mono,monospace' font-size="10" fill="#8A7F70">AVG STOPS</text><text x="199.2" y="86" font-family='DejaVu Sans Mono,monospace' font-size="13" fill="#F4EEE6">1.1</text><line x1="276" y1="60" x2="276" y2="86" stroke="#3A3128"/><text x="298" y="68" font-family='DejaVu Sans Mono,monospace' font-size="10" fill="#8A7F70">TOP COMPOUND</text><text x="298" y="86" font-family='DejaVu Sans Mono,monospace' font-size="13" fill="#F4EEE6">MED</text><line x1="396.4" y1="60" x2="396.4" y2="86" stroke="#3A3128"/><text x="418.4" y="68" font-family='DejaVu Sans Mono,monospace' font-size="10" fill="#8A7F70">LAPS</text><text x="418.4" y="86" font-family='DejaVu Sans Mono,monospace' font-size="13" fill="#F4EEE6">53</text><line x1="459.2" y1="60" x2="459.2" y2="86" stroke="#3A3128"/><text x="481.2" y="68" font-family='DejaVu Sans Mono,monospace' font-size="10" fill="#8A7F70">SC / VSC</text><text x="481.2" y="86" font-family='DejaVu Sans Mono,monospace' font-size="13" fill="#F4EEE6">0 / 0</text><line x1="550.8" y1="60" x2="550.8" y2="86" stroke="#3A3128"/><text x="572.8" y="68" font-family='DejaVu Sans Mono,monospace' font-size="10" fill="#8A7F70">CONDITIONS</text><text x="572.8" y="86" font-family='DejaVu Sans Mono,monospace' font-size="13" fill="#F4EEE6">Dry 27°C</text><line x1="656.8" y1="60" x2="656.8" y2="86" stroke="#3A3128"/><text x="678.8" y="68" font-family='DejaVu Sans Mono,monospace' font-size="10" fill="#8A7F70">DURATION</text><text x="678.8" y="86" font-family='DejaVu Sans Mono,monospace' font-size="13" fill="#F4EEE6">01:14:46</text><rect x="0" y="96" width="188" height="904" fill="#1C1815"/><line x1="188" y1="96" x2="188" y2="1000" stroke="#3A3128"/><text x="20" y="132" font-family='DejaVu Sans,sans-serif' font-size="13" fill="#BCB1A2">Home</text><rect x="156" y="119" width="18" height="16" rx="3" fill="#241F1B" stroke="#3A3128"/><text x="165" y="131" font-family='DejaVu Sans Mono,monospace' font-size="11" fill="#8A7F70" text-anchor="middle">0</text><text x="20" y="176" font-family='DejaVu Sans,sans-serif' font-size="13" fill="#BCB1A2">Overview</text><rect x="156" y="163" width="18" height="16" rx="3" fill="#241F1B" stroke="#3A3128"/><text x="165" y="175" font-family='DejaVu Sans Mono,monospace' font-size="11" fill="#8A7F70" text-anchor="middle">1</text><rect x="6" y="190" width="176" height="34" rx="3" fill="#43320F"/><rect x="6" y="190" width="3" height="34" rx="2" fill="#FFA60D"/><text x="20" y="212" font-family='DejaVu Sans,sans-serif' font-size="13" fill="#F4EEE6">Replay</text><rect x="156" y="199" width="18" height="16" rx="3" fill="#241F1B" stroke="#3A3128"/><text x="165" y="211" font-family='DejaVu Sans Mono,monospace' font-size="11" fill="#8A7F70" text-anchor="middle">2</text><text x="20" y="248" font-family='DejaVu Sans,sans-serif' font-size="13" fill="#BCB1A2">Strategy</text><rect x="156" y="235" width="18" height="16" rx="3" fill="#241F1B" stroke="#3A3128"/><text x="165" y="247" font-family='DejaVu Sans Mono,monospace' font-size="11" fill="#8A7F70" text-anchor="middle">3</text><text x="20" y="284" font-family='DejaVu Sans,sans-serif' font-size="13" fill="#BCB1A2">Field</text><rect x="156" y="271" width="18" height="16" rx="3" fill="#241F1B" stroke="#3A3128"/><text x="165" y="283" font-family='DejaVu Sans Mono,monospace' font-size="11" fill="#8A7F70" text-anchor="middle">4</text><text x="20" y="320" font-family='DejaVu Sans,sans-serif' font-size="13" fill="#BCB1A2">Incidents</text><rect x="156" y="307" width="18" height="16" rx="3" fill="#241F1B" stroke="#3A3128"/><text x="165" y="319" font-family='DejaVu Sans Mono,monospace' font-size="11" fill="#8A7F70" text-anchor="middle">5</text><text x="20" y="356" font-family='DejaVu Sans,sans-serif' font-size="13" fill="#BCB1A2">Head to head</text><rect x="156" y="343" width="18" height="16" rx="3" fill="#241F1B" stroke="#3A3128"/><text x="165" y="355" font-family='DejaVu Sans Mono,monospace' font-size="11" fill="#8A7F70" text-anchor="middle">6</text><text x="20" y="392" font-family='DejaVu Sans,sans-serif' font-size="13" fill="#BCB1A2">Lap detail</text><rect x="156" y="379" width="18" height="16" rx="3" fill="#241F1B" stroke="#3A3128"/><text x="165" y="391" font-family='DejaVu Sans Mono,monospace' font-size="11" fill="#8A7F70" text-anchor="middle">7</text><text x="20" y="428" font-family='DejaVu Sans,sans-serif' font-size="13" fill="#BCB1A2">Telemetry</text><rect x="156" y="415" width="18" height="16" rx="3" fill="#241F1B" stroke="#3A3128"/><text x="165" y="427" font-family='DejaVu Sans Mono,monospace' font-size="11" fill="#8A7F70" text-anchor="middle">8</text><text x="20" y="464" font-family='DejaVu Sans,sans-serif' font-size="13" fill="#BCB1A2">Reports &amp; AI</text><rect x="156" y="451" width="18" height="16" rx="3" fill="#241F1B" stroke="#3A3128"/><text x="165" y="463" font-family='DejaVu Sans Mono,monospace' font-size="11" fill="#8A7F70" text-anchor="middle">9</text><text x="14" y="970" font-family='DejaVu Sans Mono,monospace' font-size="10" fill="#5C544A">⌘K palette · 1–9 views</text><text x="14" y="986" font-family='DejaVu Sans Mono,monospace' font-size="10" fill="#5C544A">Space play · ←/→ step</text><text x="210" y="132" font-family='DejaVu Sans,sans-serif' font-size="21" font-weight="bold" fill="#F4EEE6">Replay workspace</text><text x="210" y="155" font-family='DejaVu Sans,sans-serif' font-size="13" fill="#BCB1A2">Track map · waveform · current values, locked to one session-relative timebase.</text><rect x="210" y="176" width="300" height="400" rx="8" fill="#1C1815" stroke="#3A3128"/><rect x="210" y="176" width="300" height="40" rx="8" fill="#241F1B"/><rect x="210" y="200" width="300" height="16" fill="#241F1B"/><line x1="210" y1="216" x2="510" y2="216" stroke="#3A3128"/><text x="224" y="201" font-family='DejaVu Sans,sans-serif' font-size="13" font-weight="bold" fill="#F4EEE6">Track map</text><rect x="402" y="185" width="51" height="22" rx="5" fill="#241F1B" stroke="#3A3128"/><text x="427.5" y="200" font-family='DejaVu Sans,sans-serif' font-size="11" fill="#BCB1A2" text-anchor="middle">Reset</text><rect x="459" y="185" width="37" height="22" rx="5" fill="#241F1B" stroke="#3A3128"/><text x="477.5" y="200" font-family='DejaVu Sans,sans-serif' font-size="11" fill="#BCB1A2" text-anchor="middle">Fit</text><rect x="210" y="216" width="300" height="360" fill="#100D0B"/><g transform="translate(244.97860465116278,241.44) scale(0.3594418604651163)"><path d="M70,250 C70,140 95,70 150,60 C210,49 250,70 300,150 L470,415 C500,462 540,470 560,440 C585,402 560,360 505,360 L250,360 C150,360 110,400 110,470 L110,690 C110,760 150,800 215,800 C280,800 312,762 312,700 L312,560 C312,505 345,470 405,470 L150,250 Z" fill="none" stroke="#524537" stroke-width="16" stroke-linejoin="round"/><path d="M70,250 C70,140 95,70 150,60 C210,49 250,70 300,150 L470,415 C500,462 540,470 560,440 C585,402 560,360 505,360 L250,360 C150,360 110,400 110,470 L110,690 C110,760 150,800 215,800 C280,800 312,762 312,700 L312,560 C312,505 345,470 405,470 L150,250 Z" fill="none" stroke="#100D0B" stroke-width="10" stroke-linejoin="round"/><circle cx="150" cy="90" r="5" fill="none" stroke="#FFA60D" stroke-width="2"/><text x="162" y="96" font-family='DejaVu Sans Mono,monospace' font-size="15" fill="#BCB1A2">T1</text><circle cx="330" cy="210" r="5" fill="none" stroke="#FFA60D" stroke-width="2"/><text x="342" y="216" font-family='DejaVu Sans Mono,monospace' font-size="15" fill="#BCB1A2">T3</text><circle cx="505" cy="400" r="5" fill="none" stroke="#FFA60D" stroke-width="2"/><text x="517" y="406" font-family='DejaVu Sans Mono,monospace' font-size="15" fill="#BCB1A2">T4</text><circle cx="300" cy="360" r="5" fill="none" stroke="#FFA60D" stroke-width="2"/><text x="312" y="366" font-family='DejaVu Sans Mono,monospace' font-size="15" fill="#BCB1A2">T8</text><circle cx="140" cy="560" r="5" fill="none" stroke="#FFA60D" stroke-width="2"/><text x="152" y="566" font-family='DejaVu Sans Mono,monospace' font-size="15" fill="#BCB1A2">T11</text><circle cx="150" cy="120" r="13" fill="#E86BE0" stroke="#100D0B" stroke-width="3"/><circle cx="150" cy="120" r="18" fill="none" stroke="#FFA60D" stroke-width="2"/><circle cx="300" cy="180" r="13" fill="#15D981" stroke="#100D0B" stroke-width="3"/><circle cx="460" cy="400" r="13" fill="#FFCE1A" stroke="#100D0B" stroke-width="3"/><circle cx="140" cy="470" r="13" fill="#22A7FF" stroke="#100D0B" stroke-width="3"/><circle cx="180" cy="690" r="13" fill="#FF7A22" stroke="#100D0B" stroke-width="3"/><rect x="86" y="337" width="22" height="6" fill="#FFA60D"/></g><rect x="526" y="176" width="886" height="400" rx="8" fill="#1C1815" stroke="#3A3128"/><rect x="526" y="176" width="886" height="40" rx="8" fill="#241F1B"/><rect x="526" y="200" width="886" height="16" fill="#241F1B"/><line x1="526" y1="216" x2="1412" y2="216" stroke="#3A3128"/><text x="540" y="201" font-family='DejaVu Sans,sans-serif' font-size="13" font-weight="bold" fill="#F4EEE6">Waveform</text><rect x="1185" y="185" width="100" height="22" rx="5" fill="#241F1B" stroke="#3A3128"/><text x="1235" y="200" font-family='DejaVu Sans,sans-serif' font-size="11" fill="#BCB1A2" text-anchor="middle">C · channels</text><rect x="1291" y="185" width="107" height="22" rx="5" fill="#241F1B" stroke="#3A3128"/><text x="1344.5" y="200" font-family='DejaVu Sans,sans-serif' font-size="11" fill="#BCB1A2" text-anchor="middle">R · reference</text><rect x="526" y="216" width="886" height="360" fill="#100D0B"/><line x1="534" y1="224" x2="1404" y2="224" stroke="#2A2620"/><line x1="534" y1="301" x2="1404" y2="301" stroke="#2A2620"/><line x1="534" y1="378" x2="1404" y2="378" stroke="#2A2620"/><line x1="534" y1="455" x2="1404" y2="455" stroke="#2A2620"/><line x1="534" y1="532" x2="1404" y2="532" stroke="#2A2620"/><polyline points="534.0,245.6 540.3,245.6 546.5,245.6 552.8,245.6 559.0,245.6 565.3,245.6 571.6,245.9 577.8,248.0 584.1,254.5 590.3,265.8 596.6,280.0 602.8,295.1 609.1,310.7 615.4,326.9 621.6,343.7 627.9,361.5 634.1,380.8 640.4,399.6 646.7,408.8 652.9,401.5 659.2,383.5 665.4,364.1 671.7,346.1 678.0,329.2 684.2,313.0 690.5,297.3 696.7,282.1 703.0,267.7 709.3,255.9 715.5,248.7 721.8,246.0 728.0,245.9 734.3,248.0 740.5,254.3 746.8,265.5 753.1,279.7 759.3,294.8 765.6,310.4 771.8,326.5 778.1,343.4 784.4,361.1 790.6,380.4 796.9,399.2 803.1,408.5 809.4,401.5 815.7,383.8 821.9,364.5 828.2,346.5 834.4,329.5 840.7,313.3 846.9,297.6 853.2,282.4 859.5,268.0 865.7,256.1 872.0,248.8 878.2,246.0 884.5,245.6 890.8,245.6 897.0,246.4 903.3,250.6 909.5,260.2 915.8,273.6 922.1,288.6 928.3,304.0 934.6,319.9 940.8,336.4 947.1,353.7 953.4,372.2 959.6,391.0 965.9,404.3 972.1,404.3 978.4,391.0 984.6,372.2 990.9,353.7 997.2,336.4 1003.4,319.9 1009.7,304.0 1015.9,288.6 1022.2,273.6 1028.5,260.2 1034.7,250.6 1041.0,246.4 1047.2,245.6 1053.5,246.4 1059.8,250.5 1066.0,260.0 1072.3,273.4 1078.5,288.3 1084.8,303.7 1091.1,319.5 1097.3,336.0 1103.6,353.4 1109.8,371.9 1116.1,390.6 1122.3,404.1 1128.6,404.4 1134.9,391.4 1141.1,372.6 1147.4,354.1 1153.6,336.7 1159.9,320.2 1166.2,304.3 1172.4,288.9 1178.7,273.9 1184.9,260.4 1191.2,250.7 1197.5,246.4 1203.7,245.6 1210.0,245.6 1216.2,246.0 1222.5,248.7 1228.7,255.9 1235.0,267.7 1241.3,282.1 1247.5,297.3 1253.8,313.0 1260.0,329.2 1266.3,346.1 1272.6,364.1 1278.8,383.5 1285.1,401.5 1291.3,408.8 1297.6,399.6 1303.9,380.8 1310.1,361.5 1316.4,343.7 1322.6,326.9 1328.9,310.7 1335.2,295.1 1341.4,280.0 1347.7,265.8 1353.9,254.5 1360.2,248.0 1366.4,245.9 1372.7,245.6 1379.0,245.6 1385.2,245.6 1391.5,245.6 1397.7,245.6 1404.0,245.6" fill="none" stroke="#22A7FF" stroke-width="2"/><polyline points="534.0,224.0 540.3,224.0 546.5,224.0 552.8,224.0 559.0,224.0 565.3,224.0 571.6,224.0 577.8,224.0 584.1,224.0 590.3,224.0 596.6,229.6 602.8,258.4 609.1,323.6 615.4,408.8 621.6,476.6 627.9,507.4 634.1,513.5 640.4,512.1 646.7,503.6 652.9,481.3 659.2,445.1 665.4,402.2 671.7,357.8 678.0,313.5 684.2,271.9 690.5,241.2 696.7,227.0 703.0,224.1 709.3,224.0 715.5,224.0 721.8,224.0 728.0,224.0 734.3,224.0 740.5,224.0 746.8,224.0 753.1,229.5 759.3,257.8 765.6,322.4 771.8,407.5 778.1,475.9 784.4,507.3 790.6,513.5 796.9,512.2 803.1,503.9 809.4,481.9 815.7,446.0 821.9,403.0 828.2,358.7 834.4,314.4 840.7,272.7 846.9,241.8 853.2,227.3 859.5,224.1 865.7,224.0 872.0,224.0 878.2,224.0 884.5,224.0 890.8,224.0 897.0,224.0 903.3,224.0 909.5,224.0 915.8,226.9 922.1,244.7 928.3,293.8 934.6,371.4 940.8,447.9 947.1,494.7 953.4,511.0 959.6,513.3 965.9,509.6 972.1,494.4 978.4,463.0 984.6,421.2 990.9,376.9 997.2,332.6 1003.4,289.8 1009.7,254.3 1015.9,233.0 1022.2,225.2 1028.5,224.0 1034.7,224.0 1041.0,224.0 1047.2,224.0 1053.5,224.0 1059.8,224.0 1066.0,224.0 1072.3,226.7 1078.5,244.1 1084.8,292.4 1091.1,369.6 1097.3,446.5 1103.6,494.1 1109.8,510.9 1116.1,513.3 1122.3,509.9 1128.6,495.0 1134.9,463.8 1141.1,422.1 1147.4,377.8 1153.6,333.5 1159.9,290.6 1166.2,254.9 1172.4,233.3 1178.7,225.3 1184.9,224.0 1191.2,224.0 1197.5,224.0 1203.7,224.0 1210.0,224.0 1216.2,224.0 1222.5,224.0 1228.7,224.0 1235.0,224.1 1241.3,231.0 1247.5,263.6 1253.8,333.1 1260.0,417.8 1266.3,481.0 1272.6,508.3 1278.8,513.5 1285.1,511.7 1291.3,501.7 1297.6,477.0 1303.9,439.3 1310.1,395.9 1316.4,351.6 1322.6,307.6 1328.9,267.4 1335.2,239.0 1341.4,226.4 1347.7,224.0 1353.9,224.0 1360.2,224.0 1366.4,224.0 1372.7,224.0 1379.0,224.0 1385.2,224.0 1391.5,224.0 1397.7,224.0 1404.0,224.0" fill="none" stroke="#15D981" stroke-width="2"/><polyline points="534.0,532.0 540.3,532.0 546.5,532.0 552.8,532.0 559.0,532.0 565.3,532.0 571.6,532.0 577.8,532.0 584.1,532.0 590.3,531.4 596.6,527.0 602.8,513.1 609.1,485.6 615.4,447.4 621.6,404.3 627.9,360.2 634.1,322.1 640.4,312.5 646.7,355.6 652.9,434.9 659.2,500.2 665.4,527.4 671.7,532.0 678.0,532.0 684.2,532.0 690.5,532.0 696.7,532.0 703.0,532.0 709.3,532.0 715.5,532.0 721.8,532.0 728.0,532.0 734.3,532.0 740.5,532.0 746.8,531.4 753.1,527.1 759.3,513.4 765.6,486.2 771.8,448.2 778.1,405.2 784.4,361.1 790.6,322.8 796.9,313.0 803.1,355.9 809.4,435.0 815.7,500.2 821.9,527.4 828.2,532.0 834.4,532.0 840.7,532.0 846.9,532.0 853.2,532.0 859.5,532.0 865.7,532.0 872.0,532.0 878.2,532.0 884.5,532.0 890.8,532.0 897.0,532.0 903.3,532.0 909.5,531.7 915.8,529.1 922.1,519.6 928.3,498.1 934.6,464.4 940.8,423.0 947.1,379.1 953.4,340.0 959.6,327.3 965.9,365.2 972.1,439.3 978.4,501.4 984.6,527.5 990.9,532.0 997.2,532.0 1003.4,532.0 1009.7,532.0 1015.9,532.0 1022.2,532.0 1028.5,532.0 1034.7,532.0 1041.0,532.0 1047.2,532.0 1053.5,532.0 1059.8,532.0 1066.0,531.7 1072.3,529.2 1078.5,519.9 1084.8,498.7 1091.1,465.2 1097.3,423.9 1103.6,380.0 1109.8,340.8 1116.1,328.1 1122.3,365.8 1128.6,439.6 1134.9,501.5 1141.1,527.5 1147.4,532.0 1153.6,532.0 1159.9,532.0 1166.2,532.0 1172.4,532.0 1178.7,532.0 1184.9,532.0 1191.2,532.0 1197.5,532.0 1203.7,532.0 1210.0,532.0 1216.2,532.0 1222.5,532.0 1228.7,532.0 1235.0,531.2 1241.3,526.2 1247.5,510.6 1253.8,481.4 1260.0,441.8 1266.3,398.2 1272.6,358.7 1278.8,344.3 1285.1,377.7 1291.3,445.8 1297.6,503.5 1303.9,527.8 1310.1,532.0 1316.4,532.0 1322.6,532.0 1328.9,532.0 1335.2,532.0 1341.4,532.0 1347.7,532.0 1353.9,532.0 1360.2,532.0 1366.4,532.0 1372.7,532.0 1379.0,532.0 1385.2,532.0 1391.5,532.0 1397.7,532.0 1404.0,532.0" fill="none" stroke="#FF7A22" stroke-width="2"/><line x1="725.4" y1="216" x2="725.4" y2="524" stroke="#7FA6C9" stroke-width="1.5" stroke-dasharray="4 4"/><line x1="890.7" y1="216" x2="890.7" y2="524" stroke="#FFA60D" stroke-width="2"/><polygon points="885.7,216 895.7,216 890.7,224" fill="#FFA60D"/><rect x="538" y="554" width="14" height="3" rx="1" fill="#22A7FF"/><text x="558" y="559" font-family='DejaVu Sans Mono,monospace' font-size="11" fill="#BCB1A2">speed_kmh</text><rect x="639" y="554" width="14" height="3" rx="1" fill="#15D981"/><text x="659" y="559" font-family='DejaVu Sans Mono,monospace' font-size="11" fill="#BCB1A2">throttle_pct</text><rect x="761" y="554" width="14" height="3" rx="1" fill="#FF7A22"/><text x="781" y="559" font-family='DejaVu Sans Mono,monospace' font-size="11" fill="#BCB1A2">brake_pct</text><rect x="862" y="554" width="14" height="3" rx="1" fill="#E86BE0"/><text x="882" y="559" font-family='DejaVu Sans Mono,monospace' font-size="11" fill="#BCB1A2">gear</text><rect x="928" y="554" width="14" height="3" rx="1" fill="#FFCE1A"/><text x="948" y="559" font-family='DejaVu Sans Mono,monospace' font-size="11" fill="#BCB1A2">rpm</text><rect x="987" y="554" width="14" height="3" rx="1" fill="#1FE0CE"/><text x="1007" y="559" font-family='DejaVu Sans Mono,monospace' font-size="11" fill="#BCB1A2">drs</text><rect x="1428" y="176" width="150" height="400" rx="8" fill="#1C1815" stroke="#3A3128"/><rect x="1428" y="176" width="150" height="40" rx="8" fill="#241F1B"/><rect x="1428" y="200" width="150" height="16" fill="#241F1B"/><line x1="1428" y1="216" x2="1578" y2="216" stroke="#3A3128"/><text x="1442" y="201" font-family='DejaVu Sans,sans-serif' font-size="13" font-weight="bold" fill="#F4EEE6">VER · Current</text><text x="1442" y="242" font-family='DejaVu Sans Mono,monospace' font-size="10" fill="#8A7F70">SPEED</text><text x="1442" y="266" font-family='DejaVu Sans Mono,monospace' font-size="22" fill="#FFA60D">301</text><text x="1442" y="298" font-family='DejaVu Sans Mono,monospace' font-size="10" fill="#8A7F70">THROTTLE</text><text x="1442" y="322" font-family='DejaVu Sans Mono,monospace' font-size="22" fill="#F4EEE6">0</text><text x="1442" y="354" font-family='DejaVu Sans Mono,monospace' font-size="10" fill="#8A7F70">BRAKE</text><text x="1442" y="378" font-family='DejaVu Sans Mono,monospace' font-size="22" fill="#F4EEE6">100</text><text x="1442" y="410" font-family='DejaVu Sans Mono,monospace' font-size="10" fill="#8A7F70">GEAR</text><text x="1442" y="434" font-family='DejaVu Sans Mono,monospace' font-size="22" fill="#F4EEE6">8</text><text x="1442" y="466" font-family='DejaVu Sans Mono,monospace' font-size="10" fill="#8A7F70">RPM</text><text x="1442" y="490" font-family='DejaVu Sans Mono,monospace' font-size="22" fill="#F4EEE6">11240</text><text x="1442" y="522" font-family='DejaVu Sans Mono,monospace' font-size="10" fill="#8A7F70">DRS</text><text x="1442" y="546" font-family='DejaVu Sans Mono,monospace' font-size="22" fill="#1FE0CE">OFF</text><rect x="210" y="594" width="1368" height="78" rx="8" fill="#1C1815" stroke="#3A3128"/><rect x="210" y="594" width="1368" height="40" rx="8" fill="#241F1B"/><rect x="210" y="618" width="1368" height="16" fill="#241F1B"/><line x1="210" y1="634" x2="1578" y2="634" stroke="#3A3128"/><text x="224" y="619" font-family='DejaVu Sans,sans-serif' font-size="13" font-weight="bold" fill="#F4EEE6">Context strip</text><rect x="1499" y="603" width="65" height="22" rx="5" fill="#241F1B" stroke="#3A3128"/><text x="1531.5" y="618" font-family='DejaVu Sans,sans-serif' font-size="11" fill="#BCB1A2" text-anchor="middle">53 laps</text><rect x="224" y="642" width="1340" height="22" rx="3" fill="#100D0B"/><rect x="224" y="656" width="1340" height="8" fill="rgba(39,217,140,0.10)"/><rect x="505.4" y="656" width="67" height="8" fill="#FFDA1F"/><rect x="572.4000000000001" y="656" width="134" height="8" fill="#FF8A1F"/><rect x="1162" y="656" width="40.199999999999996" height="8" fill="#FF5A5F"/><rect x="1349.6" y="656" width="107.2" height="8" fill="#3E9BF5"/><rect x="572.4000000000001" y="644" width="2" height="14" fill="#FF8A1F"/><rect x="706.4" y="644" width="2" height="14" fill="#1FE0CE"/><rect x="1162" y="644" width="2" height="14" fill="#FF5A5F"/><rect x="773.4" y="642" width="2" height="22" fill="#FFA60D"/><rect x="210" y="934" width="1368" height="54" rx="8" fill="#1C1815" stroke="#3A3128"/><rect x="224" y="947" width="78" height="28" rx="5" fill="#FFA60D"/><text x="263" y="965" font-family='DejaVu Sans,sans-serif' font-size="13" font-weight="bold" fill="#1A1206" text-anchor="middle">▶ Play</text><text x="314" y="966" font-family='DejaVu Sans Mono,monospace' font-size="14" fill="#F4EEE6">01:23:11.956</text><rect x="460" y="958" width="968" height="6" rx="3" fill="#100D0B"/><rect x="460" y="958" width="445.28000000000003" height="6" rx="3" fill="#FFA60D"/><circle cx="905.28" cy="961" r="7" fill="#fff"/><rect x="1060.1599999999999" y="958" width="48.400000000000006" height="6" fill="#FF8A1F"/><rect x="1428" y="952" width="34" height="20" rx="3" fill="#100D0B" stroke="#3A3128"/><text x="1445" y="966" font-family='DejaVu Sans Mono,monospace' font-size="10" fill="#8A7F70" text-anchor="middle">0.25×</text><rect x="1464" y="952" width="34" height="20" rx="3" fill="#FFA60D" stroke="#3A3128"/><text x="1481" y="966" font-family='DejaVu Sans Mono,monospace' font-size="10" fill="#1A1206" text-anchor="middle">1×</text><rect x="1500" y="952" width="34" height="20" rx="3" fill="#100D0B" stroke="#3A3128"/><text x="1517" y="966" font-family='DejaVu Sans Mono,monospace' font-size="10" fill="#8A7F70" text-anchor="middle">4×</text><rect x="1536" y="952" width="34" height="20" rx="3" fill="#100D0B" stroke="#3A3128"/><text x="1553" y="966" font-family='DejaVu Sans Mono,monospace' font-size="10" fill="#8A7F70" text-anchor="middle">20×</text></svg>